<?xml version="1.0" encoding="UTF-8" standalone="no"?><!DOCTYPE svg PUBLIC "-//W3C//DTD SVG 1.1//EN" "http://www.w3.org/Graphics/SVG/1.1/DTD/svg11.dtd"><svg width="100%" height="100%" viewBox="0 0 24 24" version="1.1" xmlns="http://www.w3.org/2000/svg" xmlns:xlink="http://www.w3.org/1999/xlink" xml:space="preserve" xmlns:serif="http://www.serif.com/" style="fill-rule:evenodd;clip-rule:evenodd;stroke-linejoin:round;stroke-miterlimit:2;"><g><path d="M4.286,3.57l15.428,0c-0.066,2.093 -0.052,4.195 -0.287,6.283c-0.225,2.083 -0.724,4.161 -1.669,6.042c-0.404,0.804 -0.86,1.585 -1.425,2.29c-1.147,1.435 -2.675,2.53 -4.335,3.292c-1.533,-0.701 -2.953,-1.683 -4.063,-2.958c-0.677,-0.771 -1.213,-1.655 -1.674,-2.567c-0.912,-1.792 -1.416,-3.767 -1.655,-5.751c-0.268,-2.201 -0.273,-4.42 -0.32,-6.631Z" style="fill:#262222;fill-rule:nonzero;"/><path d="M4.591,3.876l14.803,0c-0.047,2.215 -0.056,4.439 -0.362,6.635c-0.145,1.039 -0.362,2.069 -0.677,3.066c-2.116,-1.674 -4.227,-3.357 -6.343,-5.031c-2.121,1.683 -4.246,3.366 -6.367,5.05c-0.63,-1.985 -0.856,-4.072 -0.945,-6.146c-0.066,-1.19 -0.076,-2.384 -0.109,-3.574Z" style="fill:#fbd150;fill-rule:nonzero;"/><path d="M17.923,4.346c0.324,-0.127 0.743,0.113 0.761,0.471c0.029,0.329 -0.178,0.601 -0.291,0.893c-0.108,0.273 -0.245,0.56 -0.212,0.861c0.123,-0.146 0.212,-0.315 0.325,-0.471c-0.038,0.184 -0.08,0.362 -0.09,0.551c-0.009,0.253 0.033,0.503 0.047,0.752c0.029,0.226 -0.225,0.381 -0.188,0.606c0.057,0.367 0.24,0.711 0.217,1.087c-0.005,0.207 -0.118,0.409 -0.287,0.526c-0.146,0.099 -0.329,0.094 -0.494,0.123c0.009,0.122 -0.005,0.244 0.038,0.362c0.108,0.193 0.366,0.23 0.489,0.399c0.018,0.353 -0.221,0.654 -0.264,0.993c-0.018,0.164 -0.08,0.315 -0.15,0.46c-0.066,-0.079 -0.094,-0.263 -0.235,-0.221c-0.118,0.043 -0.184,0.165 -0.292,0.226c-0.113,0.024 -0.235,0.01 -0.348,0.01c0.024,-0.113 0.047,-0.231 0.08,-0.339c-0.108,-0.005 -0.211,-0.009 -0.32,-0.024c-0.009,-0.094 -0.014,-0.206 0.062,-0.277c0.089,-0.052 0.197,-0.052 0.296,-0.075c-0.094,-0.052 -0.193,-0.099 -0.292,-0.141c0.052,-0.08 0.09,-0.17 0.165,-0.226c0.089,-0.047 0.235,-0.042 0.277,0.066c0.066,0.141 0.099,0.306 0.221,0.414c0.174,-0.151 0.301,-0.381 0.268,-0.616c-0.066,-0.193 -0.258,-0.325 -0.451,-0.353c-0.292,-0.024 -0.616,0.113 -0.875,-0.066c-0.23,-0.193 -0.216,-0.555 -0.099,-0.804c0.104,-0.212 0.358,-0.259 0.565,-0.315c-0.231,-0.461 -0.654,-0.757 -1.039,-1.077c-0.231,-0.183 -0.198,-0.512 -0.123,-0.757c0.099,0.066 0.193,0.136 0.282,0.207c0.127,-0.141 0.25,-0.306 0.438,-0.357c0.197,-0.057 0.399,-0 0.588,0.056c-0.09,0.63 0.103,1.298 0.522,1.778c0.089,0.098 0.136,0.221 0.183,0.343c0.019,0.094 0.132,0.099 0.212,0.094c0.216,-0.024 0.39,-0.24 0.376,-0.461c-0,-0.216 -0.024,-0.442 -0.123,-0.63c-0.037,-0.075 -0.136,-0.146 -0.221,-0.089c-0.122,0.061 -0.155,0.206 -0.216,0.319c-0.085,-0.174 -0.211,-0.385 -0.089,-0.573c0.08,-0.165 0.277,-0.109 0.418,-0.085c-0.066,-0.451 -0.207,-0.908 -0.122,-1.364c0.089,-0.414 0.212,-0.818 0.249,-1.241c0.038,-0.193 -0.207,-0.325 -0.362,-0.231c-0.117,0.062 -0.099,0.212 -0.103,0.325c0.004,0.235 -0.019,0.47 -0.066,0.705c-0.057,-0.404 -0.226,-0.799 -0.188,-1.218c0.037,-0.263 0.211,-0.517 0.461,-0.616Zm-9.17,0.245c0.089,-0.028 0.165,-0.089 0.245,-0.141c0.014,0.07 0.032,0.146 0.037,0.221c-0.052,0.084 -0.122,0.155 -0.169,0.244c-0.01,0.184 0.089,0.405 -0.075,0.551c-0.311,0.347 -0.823,0.244 -1.232,0.315c-0.01,-0.033 -0.029,-0.099 -0.043,-0.132c0.141,-0.019 0.297,-0.01 0.414,-0.099c0.146,-0.169 0.169,-0.498 -0.056,-0.616c-0.179,-0.07 -0.358,0.038 -0.532,0.071c0.043,-0.09 0.066,-0.212 0.174,-0.245c0.207,-0.08 0.414,-0.15 0.616,-0.23c0.212,-0.09 0.414,0.07 0.621,0.061Zm7.298,-0.047c0.212,-0.118 0.428,0.042 0.63,0.103c0.165,0.076 0.334,-0.009 0.489,-0.066c0,0.08 0.005,0.156 0.01,0.236c-0.066,0.061 -0.141,0.117 -0.198,0.188c-0.099,0.155 -0.084,0.385 -0.258,0.489c-0.146,0.075 -0.287,0.155 -0.438,0.216c-0.249,0.071 -0.517,0.033 -0.766,-0.023c0.014,-0.033 0.028,-0.066 0.042,-0.104c0.132,-0.014 0.292,0.005 0.386,-0.108c0.141,-0.136 0.117,-0.376 0.009,-0.522c-0.042,-0.061 -0.127,-0.052 -0.193,-0.042c-0.136,0.023 -0.268,0.056 -0.399,0.084c0.032,-0.094 0.037,-0.244 0.169,-0.263c0.174,-0.047 0.352,-0.094 0.517,-0.188Zm-10.797,0.108c0.109,-0.047 0.217,-0.146 0.344,-0.103c0.146,0.028 0.155,0.197 0.202,0.31c0.038,0.023 0.075,0.047 0.108,0.07c0.01,-0.145 0.066,-0.277 0.146,-0.395c0.089,0.08 0.24,0.146 0.23,0.287c-0.004,0.217 -0.028,0.447 0.076,0.649c0.225,0.466 0.724,0.729 1.208,0.842c-0.094,0.132 -0.174,0.268 -0.249,0.409c-0.137,-0.005 -0.273,-0.005 -0.409,-0.005c-0.014,-0.051 -0.033,-0.098 -0.047,-0.15c-0.127,-0.061 -0.259,-0.108 -0.381,-0.184c-0.137,-0.094 -0.155,-0.277 -0.264,-0.399c-0.07,-0.057 -0.159,-0.08 -0.239,-0.113c-0,-0.085 0.014,-0.183 -0.052,-0.254c-0.122,-0.179 -0.348,-0.216 -0.541,-0.259c-0.023,-0.042 -0.047,-0.08 -0.07,-0.122c-0.033,-0.014 -0.094,-0.038 -0.127,-0.052c0.112,-0.08 0.235,-0.145 0.362,-0.211c-0.151,-0.052 -0.25,-0.17 -0.297,-0.32Z" style="fill:#cf1c43;fill-rule:nonzero;"/><path d="M7.972,4.873c0.062,-0.075 0.109,-0.193 0.217,-0.216c0.098,0.014 0.197,0.07 0.225,0.174c-0.141,0.056 -0.291,0.061 -0.442,0.042Z" style="fill:#fbd150;fill-rule:nonzero;"/><path d="M10.794,4.887c0.31,-0.24 0.733,-0.282 1.1,-0.16c0.395,0.127 0.781,0.306 1.204,0.301c-0.155,0.245 -0.404,0.409 -0.677,0.494c-0.226,0.056 -0.452,-0 -0.677,-0.009c0.075,0.126 0.141,0.263 0.183,0.404c-0.263,-0.188 -0.574,-0.367 -0.912,-0.296c-0.292,0.066 -0.447,0.357 -0.55,0.606c-0.08,0.184 -0.057,0.386 0.018,0.565c0.071,-0.24 0.287,-0.363 0.438,-0.541c0.056,0.075 0.15,0.141 0.141,0.249c-0.005,0.165 -0.169,0.254 -0.245,0.386c0.01,0.174 0.094,0.352 0.029,0.526c-0.127,0.376 -0.146,0.823 -0.447,1.11c-0.151,0.16 -0.376,0.183 -0.579,0.188c-0.056,0.169 -0.117,0.358 -0.277,0.461c-0.179,0.127 -0.404,0.071 -0.607,0.066c0.09,0.277 0.33,0.451 0.541,0.635c-0.343,0.169 -0.696,0.333 -0.978,0.597c-0.169,0.155 -0.263,0.371 -0.404,0.545c-0.057,-0.07 -0.118,-0.136 -0.179,-0.202c-0.122,0.132 -0.226,0.278 -0.357,0.4c-0.052,-0.019 -0.099,-0.038 -0.151,-0.057c-0.028,0.019 -0.089,0.057 -0.117,0.076c-0.015,-0.071 -0.038,-0.146 -0.043,-0.217c0.038,-0.098 0.108,-0.178 0.165,-0.268c-0.085,0.014 -0.174,0.033 -0.259,0.052c-0.037,-0.08 -0.113,-0.169 -0.047,-0.259c0.066,-0.174 0.306,-0.131 0.39,-0.291c-0.047,0.009 -0.141,0.023 -0.188,0.033c0.024,-0.146 0.094,-0.325 0.273,-0.297c0.179,0.085 0.339,0.269 0.56,0.203c0.221,-0.061 0.461,-0.16 0.597,-0.348c-0.005,-0.024 -0.019,-0.071 -0.024,-0.094c-0.263,-0.108 -0.587,-0.113 -0.785,-0.353c-0.244,-0.24 -0.132,-0.691 0.174,-0.823c0.202,-0.113 0.433,-0.047 0.64,0c-0.184,-0.376 -0.687,-0.315 -0.941,-0.607c-0.07,-0.079 -0.023,-0.197 0.057,-0.249c0.221,-0.16 0.507,-0.117 0.761,-0.15c0.165,-0.01 0.315,-0.071 0.461,-0.141c0.108,0.338 0.249,0.696 0.541,0.921c0.132,0.104 0.315,0.198 0.484,0.113c0.24,-0.122 0.381,-0.39 0.405,-0.649c0.019,-0.155 -0.085,-0.301 -0.226,-0.352c-0.127,-0.062 -0.263,-0.005 -0.39,0.028c0.033,-0.118 0.033,-0.282 0.169,-0.334c0.122,-0.042 0.254,-0.033 0.376,-0.052c-0.197,-0.334 -0.385,-0.719 -0.31,-1.124c0.084,-0.409 0.32,-0.813 0.663,-1.086Z" style="fill:#cf1c43;fill-rule:nonzero;"/><path d="M15.957,4.873c0.042,-0.085 0.056,-0.221 0.179,-0.221c0.108,0.014 0.207,0.061 0.31,0.103c-0.155,0.062 -0.32,0.104 -0.489,0.118Z" style="fill:#fbd150;fill-rule:nonzero;"/><path d="M14.203,4.694c0.122,0.047 0.292,0.08 0.334,0.226c0.023,0.193 -0.019,0.414 0.122,0.569c0.254,0.31 0.659,0.433 0.95,0.691c-0.108,0.123 -0.207,0.245 -0.301,0.376c-0.197,-0.164 -0.428,-0.3 -0.691,-0.315c0.033,-0.042 0.07,-0.084 0.103,-0.127c-0.108,-0.174 -0.249,-0.329 -0.437,-0.409c-0.075,0.076 -0.146,0.16 -0.235,0.221c-0.108,0.01 -0.212,-0.004 -0.32,-0.004c0.028,-0.132 0.066,-0.264 0.122,-0.386c0.08,-0.019 0.16,-0.038 0.235,-0.056c-0.173,-0.047 -0.324,-0.146 -0.446,-0.268c0.084,-0.066 0.155,-0.212 0.282,-0.17c0.07,0.014 0.136,0.038 0.207,0.061c0.023,-0.136 0.056,-0.272 0.075,-0.409Zm-5.107,0.245c0.221,0.324 0.367,0.71 0.348,1.105c-0.019,0.31 -0.216,0.578 -0.225,0.893c-0.01,0.141 0.07,0.264 0.131,0.391c-0.16,-0.033 -0.31,-0.085 -0.461,-0.141c0,0.084 0.005,0.169 0.005,0.254c-0.108,-0.076 -0.216,-0.151 -0.324,-0.222c-0.165,0.113 -0.33,0.245 -0.527,0.292c-0.146,0.042 -0.301,0.033 -0.451,0.071c-0.071,0.047 -0.118,0.122 -0.174,0.183c-0.047,-0.372 -0.029,-0.771 0.15,-1.11c0.254,-0.414 0.748,-0.545 1.129,-0.799c0.301,-0.212 0.39,-0.583 0.399,-0.917Zm5.737,0.179c0.202,0.032 0.405,0.009 0.602,-0.029c0.16,-0.037 0.301,0.057 0.428,0.146c-0.202,0.071 -0.395,0.207 -0.621,0.165c-0.178,-0.019 -0.296,-0.155 -0.409,-0.282Zm2.328,0.009c0.084,0.183 0.155,0.376 0.15,0.578c-0.009,0.499 -0.244,0.969 -0.192,1.467c-0.203,-0.103 -0.428,-0.178 -0.654,-0.131c-0.198,0.019 -0.362,0.146 -0.508,0.273c-0.188,-0.132 -0.409,-0.198 -0.611,-0.292c-0.047,-0.287 0.207,-0.498 0.39,-0.677c0.31,-0.315 0.762,-0.414 1.086,-0.706c0.16,-0.131 0.245,-0.329 0.339,-0.512Zm-10.454,0.193c0.25,-0.019 0.485,-0.104 0.734,-0.118c0.174,-0.014 0.296,0.122 0.409,0.235c-0.263,0.024 -0.526,0.094 -0.79,0.071c-0.146,-0.01 -0.249,-0.108 -0.353,-0.188Zm7.04,0.936c0.108,0.037 0.254,0.042 0.315,0.159c0.099,0.188 0.099,0.414 0.197,0.602c0.066,0.132 0.184,0.24 0.33,0.287c0.286,0.094 0.583,0.155 0.884,0.179c-0.057,0.277 -0.043,0.583 0.145,0.809c-0.263,-0.127 -0.564,-0.179 -0.785,-0.381c-0.155,-0.141 -0.348,-0.226 -0.555,-0.273c0.01,-0.066 0.014,-0.132 0.024,-0.197c-0.127,0.004 -0.287,-0.052 -0.381,0.056c-0.122,0.132 -0.268,0.235 -0.428,0.306c-0.033,-0.118 -0.094,-0.231 -0.08,-0.353c0.052,-0.122 0.198,-0.169 0.296,-0.245c-0.094,-0.117 -0.225,-0.033 -0.343,-0.009c-0.094,-0.024 -0.183,-0.071 -0.273,-0.103c0.033,-0.123 0.043,-0.287 0.174,-0.344c0.193,-0.098 0.376,0.061 0.536,0.155c-0.065,-0.112 -0.15,-0.221 -0.183,-0.348c0.019,-0.108 0.085,-0.202 0.127,-0.3Zm-8.398,0.126c0.108,-0.009 0.221,-0.047 0.324,0.01c0.212,0.113 0.197,0.418 0.414,0.522c0.348,0.179 0.766,0.258 1.142,0.103c-0.023,0.184 -0.018,0.362 -0.009,0.546c-0.268,0.042 -0.517,-0.071 -0.771,-0.137c-0.146,0.01 -0.268,0.118 -0.405,0.174c-0.023,-0.08 -0.009,-0.183 -0.079,-0.235c-0.123,-0.033 -0.207,0.076 -0.297,0.132c-0.089,0.009 -0.178,0.023 -0.272,0.038c-0.047,-0.16 0.032,-0.301 0.065,-0.452c-0.094,-0.052 -0.207,-0.052 -0.31,-0.061c0.009,-0.075 0.014,-0.15 0.047,-0.221c0.071,-0.071 0.174,-0.085 0.263,-0.118c-0.042,-0.098 -0.075,-0.197 -0.112,-0.301Zm1.683,2.107c0.042,-0.169 0.174,-0.348 0.362,-0.362c0.235,-0.023 0.428,0.151 0.602,0.277c-0.179,0.109 -0.353,0.245 -0.409,0.457c-0.066,0.169 -0.019,0.348 0.037,0.512c-0.343,-0.07 -0.681,0.066 -0.964,0.254c0.052,-0.108 0.08,-0.254 -0.051,-0.32c-0.127,-0.103 -0.212,0.061 -0.287,0.146c-0.071,0.118 -0.226,0.108 -0.343,0.141c-0.024,-0.023 -0.076,-0.061 -0.104,-0.084c-0.005,-0.052 -0.009,-0.109 -0.014,-0.16l0.099,-0.184c-0.108,0.028 -0.226,0.057 -0.287,0.165c-0.108,-0.085 -0.221,-0.207 -0.146,-0.353c0.09,-0.207 0.343,-0.136 0.517,-0.108c-0.098,-0.103 -0.192,-0.212 -0.291,-0.32c0.07,-0.169 0.259,-0.258 0.433,-0.178c0.197,0.07 0.178,0.315 0.239,0.479c0.024,0.122 0.16,0.155 0.264,0.184c0.127,0.037 0.277,0.014 0.371,-0.09c0.014,-0.155 -0.042,-0.301 -0.028,-0.456Zm8.685,0.423c0.075,-0.16 0.292,-0.197 0.438,-0.113c0.141,0.066 0.211,0.207 0.277,0.334c-0.141,0.132 -0.31,0.254 -0.386,0.438c-0.07,0.155 -0.047,0.329 -0.037,0.493c-0.306,-0.094 -0.607,0.01 -0.889,0.132c-0.113,-0.136 -0.282,-0.174 -0.447,-0.132c-0.014,0.038 -0.037,0.113 -0.051,0.151c-0.062,-0.057 -0.127,-0.108 -0.179,-0.174c0.009,-0.104 0.042,-0.207 0.061,-0.306c-0.028,0.028 -0.085,0.09 -0.108,0.118c-0.085,-0.071 -0.202,-0.118 -0.226,-0.235c0.028,-0.193 0.273,-0.184 0.358,-0.339c-0.057,0 -0.174,0.005 -0.231,0.01c0.061,-0.104 0.094,-0.259 0.235,-0.278c0.113,-0.019 0.278,0.005 0.315,0.136c0.076,0.203 0.132,0.452 0.344,0.56c0.145,0.103 0.371,0.038 0.432,-0.132c0.08,-0.211 0,-0.456 0.094,-0.663Z" style="fill:#cf1c43;fill-rule:nonzero;"/><path d="M5.955,14.494c2.017,-1.599 4.035,-3.198 6.052,-4.801c2.008,1.594 4.016,3.193 6.028,4.787c-0.15,0.395 -0.319,0.785 -0.503,1.166c-1.843,-1.462 -3.682,-2.925 -5.525,-4.382c-1.848,1.467 -3.696,2.934 -5.549,4.396c-0.178,-0.385 -0.352,-0.771 -0.503,-1.166Z" style="fill:#fff;fill-rule:nonzero;"/><path d="M6.891,16.469c1.702,-1.354 3.414,-2.704 5.121,-4.063c1.697,1.35 3.4,2.699 5.097,4.049c-0.353,0.621 -0.738,1.223 -1.204,1.759c-1.058,1.25 -2.431,2.214 -3.903,2.92c-1.467,-0.691 -2.826,-1.651 -3.888,-2.887c-0.475,-0.541 -0.87,-1.153 -1.223,-1.778Z" style="fill:#fbd150;fill-rule:nonzero;"/><path d="M12.656,13.657c0.132,0.009 0.24,-0.075 0.348,-0.132c-0.028,0.118 -0.08,0.226 -0.165,0.315c-0.15,0.151 -0.103,0.428 -0.31,0.532c-0.376,0.207 -0.771,0.399 -1.204,0.437c0.028,-0.197 0.292,-0.179 0.348,-0.357c0.028,-0.146 0,-0.315 -0.103,-0.423c-0.132,-0.033 -0.254,0.051 -0.381,0.079c0.047,-0.075 0.075,-0.164 0.146,-0.221c0.098,-0.065 0.221,-0.08 0.329,-0.103c0.099,-0.089 0.188,-0.207 0.329,-0.216c0.226,-0.029 0.437,0.075 0.663,0.089Z" style="fill:#cf1c43;fill-rule:nonzero;"/><path d="M11.941,13.949c-0.094,-0.094 -0.014,-0.189 0.08,-0.24c0.104,0.028 0.212,0.056 0.315,0.084c-0.122,0.066 -0.249,0.137 -0.395,0.156Z" style="fill:#fbd150;fill-rule:nonzero;"/><path d="M12.971,14.014c0.071,0.104 0.151,0.212 0.151,0.344c0.032,0.526 -0.184,1.029 -0.151,1.556c0,0.188 0.071,0.362 0.141,0.532c-0.103,-0.052 -0.197,-0.118 -0.31,-0.137c-0.066,0.066 -0.118,0.141 -0.17,0.212c-0.258,-0.165 -0.512,-0.4 -0.54,-0.724c-0.198,0.117 -0.424,0.164 -0.649,0.202c0.028,-0.099 0.061,-0.198 0.089,-0.301c-0.169,0.023 -0.31,0.117 -0.447,0.211c0.094,-0.427 0.334,-0.874 0.772,-1.029c0.291,-0.099 0.597,-0.188 0.827,-0.405c0.141,-0.117 0.212,-0.291 0.287,-0.461Zm-2.323,0.264c0.235,0.042 0.456,-0.066 0.687,-0.085c0.098,0.033 0.183,0.104 0.268,0.165c-0.212,0.061 -0.419,0.155 -0.645,0.145c-0.141,-0.009 -0.221,-0.136 -0.31,-0.225Zm-0.376,0.414c0.019,-0.095 0.07,-0.184 0.108,-0.273c0.089,0.047 0.193,0.089 0.268,0.16c0.118,0.141 0.009,0.376 0.169,0.493c0.104,0.08 0.235,0.099 0.358,0.132c-0.066,0.118 -0.113,0.249 -0.193,0.357c-0.151,0.08 -0.325,0.099 -0.48,0.151c-0.023,-0.108 0.01,-0.254 -0.103,-0.32c-0.174,-0.023 -0.254,0.212 -0.428,0.184l-0.245,-0c-0.023,-0.137 -0.065,-0.311 0.066,-0.41c0.108,-0.018 0.217,-0.018 0.329,-0.028c-0.174,-0.075 -0.343,-0.15 -0.484,-0.277c0.075,-0.137 0.212,-0.306 0.386,-0.212c0.136,0.108 0.23,0.264 0.385,0.348c-0.047,-0.103 -0.103,-0.197 -0.136,-0.305Z" style="fill:#cf1c43;fill-rule:nonzero;"/><path d="M13.479,15.392c-0.094,-0.235 0.005,-0.564 0.263,-0.644c0.301,-0.08 0.626,0.061 0.823,0.296c0.315,0.367 0.381,0.88 0.292,1.34c0.094,-0.075 0.174,-0.169 0.291,-0.207c0.094,0.015 0.188,0.048 0.278,0.076c-0.118,0.122 -0.259,0.244 -0.306,0.418c-0.042,0.127 -0.009,0.259 0.014,0.386c-0.136,0.047 -0.282,0.099 -0.371,0.226c-0.25,0.305 -0.315,0.766 -0.701,0.945c-0.329,0.164 -0.691,0.033 -1.011,-0.076c0.042,0.137 0.08,0.283 0.179,0.391c0.145,0.16 0.343,0.263 0.526,0.376c-0.221,0.221 -0.395,0.475 -0.592,0.715c-0.118,0.15 -0.287,0.244 -0.442,0.357c-0.071,-0.005 -0.141,-0.014 -0.212,-0.019c0.014,-0.056 0.033,-0.117 0.047,-0.174c-0.094,-0.009 -0.202,-0.037 -0.277,0.038c-0.122,0.08 -0.141,0.24 -0.207,0.362c-0.132,0.019 -0.273,0.024 -0.386,0.099c-0.009,-0.108 -0.047,-0.231 0.014,-0.329c0.08,-0.118 0.198,-0.207 0.292,-0.315c-0.113,-0 -0.221,0.042 -0.329,0.065c-0.104,-0.028 -0.198,-0.08 -0.301,-0.122c0.094,-0.117 0.183,-0.263 0.343,-0.296c0.141,-0.052 0.273,0.037 0.395,0.099c-0.08,-0.094 -0.155,-0.193 -0.212,-0.301c-0.014,-0.019 -0.037,-0.061 -0.051,-0.08c0.164,-0.061 0.367,-0.118 0.508,0.019c0.042,0.126 0.033,0.282 0.136,0.385c0.061,0.061 0.146,0.122 0.235,0.104c0.165,-0.099 0.235,-0.287 0.31,-0.457c-0.249,-0.282 -0.62,-0.385 -0.921,-0.592c-0.198,-0.127 -0.343,-0.343 -0.353,-0.583c0.005,-0.169 0.113,-0.325 0.273,-0.386c0.169,-0.084 0.362,-0.004 0.536,0.024c-0.16,-0.17 -0.348,-0.311 -0.564,-0.405c-0.179,-0.084 -0.381,-0.131 -0.541,-0.254c-0.212,-0.169 -0.296,-0.47 -0.221,-0.724c0.221,-0.07 0.475,0.033 0.672,-0.127c0.212,0.273 0.395,0.579 0.706,0.753c0.061,-0.09 0.127,-0.184 0.192,-0.268c0.198,0.381 0.043,0.837 0.236,1.218c0.127,0.249 0.399,0.437 0.686,0.404c0.343,-0.033 0.607,-0.343 0.691,-0.663c0.052,-0.165 -0.08,-0.381 -0.268,-0.362c-0.15,0.047 -0.254,0.183 -0.371,0.277c0.023,-0.193 0.019,-0.423 0.174,-0.569c0.127,-0.066 0.282,-0.066 0.4,-0.15c-0.071,-0.09 -0.17,-0.151 -0.264,-0.216c0.16,0.023 0.32,0.047 0.48,0.079c0.146,-0.343 0.207,-0.752 0.023,-1.1c-0.094,-0.202 -0.286,-0.334 -0.489,-0.414c-0.023,0.029 -0.08,0.08 -0.103,0.108c0.146,0.146 0.343,0.268 0.4,0.48c0.032,0.132 -0.052,0.245 -0.17,0.292c-0.042,0.249 -0.178,0.46 -0.357,0.639c0.005,-0.207 0.005,-0.428 -0.089,-0.621c-0.062,-0.197 -0.207,-0.343 -0.306,-0.517Z" style="fill:#cf1c43;fill-rule:nonzero;"/><path d="M8.838,15.632c0.122,-0.099 0.272,-0.245 0.437,-0.15c0.221,0.07 0.197,0.338 0.306,0.493c0.442,0.25 0.982,0.25 1.471,0.16c-0.014,0.273 0.043,0.56 0.236,0.767c-0.297,-0.099 -0.607,-0.146 -0.884,-0.301c-0.104,-0.052 -0.212,-0.132 -0.334,-0.113c-0.165,0.019 -0.315,0.094 -0.471,0.15c-0.014,-0.136 -0.042,-0.291 -0.192,-0.334c-0.071,0.09 -0.094,0.203 -0.146,0.301c-0.066,0.057 -0.151,0.094 -0.226,0.137c-0.056,-0.071 -0.132,-0.132 -0.16,-0.221c0.014,-0.066 0.043,-0.132 0.061,-0.198c-0.127,0.019 -0.254,0.028 -0.38,0.038c0.018,-0.146 -0.043,-0.358 0.112,-0.447c0.141,-0.061 0.297,-0.014 0.447,-0.009c-0.089,-0.085 -0.183,-0.179 -0.277,-0.273Zm1.885,1.928c-0.051,-0.24 0.188,-0.494 0.428,-0.461c0.287,0.028 0.503,0.254 0.795,0.282c-0.376,0.141 -0.423,0.64 -0.207,0.936c-0.433,-0.061 -0.818,0.169 -1.176,0.372c-0.014,-0.071 -0.023,-0.146 -0.047,-0.217c-0.084,-0.042 -0.178,-0.009 -0.268,-0.009c-0.08,0.005 -0.174,-0.005 -0.23,0.07c-0.108,0.113 -0.235,0.203 -0.367,0.283c-0.033,-0.057 -0.07,-0.118 -0.103,-0.174c0.009,-0.109 0.061,-0.231 0.004,-0.334c-0.108,-0.029 -0.211,0.023 -0.31,0.051c0,-0.141 -0.042,-0.31 0.08,-0.413c0.113,-0.01 0.226,0.004 0.339,-0c0.014,-0.151 -0.156,-0.127 -0.254,-0.156c0.047,-0.117 0.084,-0.291 0.239,-0.291c0.09,-0.005 0.231,-0.005 0.254,0.108c0.047,0.136 0.094,0.292 0.24,0.353c0.259,0.117 0.565,0.08 0.833,-0c-0.071,-0.141 -0.193,-0.25 -0.25,-0.4Z" style="fill:#cf1c43;fill-rule:nonzero;"/></g></svg>